<svg width="38" height="36" viewBox="0 0 38 36" fill="none" xmlns="http://www.w3.org/2000/svg">
<path d="M23.875 8.5C26.2619 8.5 28.5511 9.44821 30.239 11.136C31.9268 12.8239 32.875 15.1131 32.875 17.5C32.875 19.8869 31.9268 22.1761 30.239 23.864C28.5511 25.5518 26.2619 26.5 23.875 26.5C21.4881 26.5 19.1989 25.5518 17.511 23.864C15.8232 22.1761 14.875 19.8869 14.875 17.5C14.875 15.1131 15.8232 12.8239 17.511 11.136C19.1989 9.44821 21.4881 8.5 23.875 8.5ZM23.875 24.25C25.6652 24.25 27.3821 23.5388 28.648 22.273C29.9138 21.0071 30.625 19.2902 30.625 17.5C30.625 15.7098 29.9138 13.9929 28.648 12.727C27.3821 11.4612 25.6652 10.75 23.875 10.75C22.0848 10.75 20.3679 11.4612 19.102 12.727C17.8362 13.9929 17.125 15.7098 17.125 17.5C17.125 19.2902 17.8362 21.0071 19.102 22.273C20.3679 23.5388 22.0848 24.25 23.875 24.25ZM10.375 17.5C10.375 20.4362 12.2537 22.9337 14.875 23.8562V26.2075C10.9937 25.2062 8.125 21.6962 8.125 17.5C8.125 13.3038 10.9937 9.79375 14.875 8.7925V11.1437C12.2537 12.0662 10.375 14.5638 10.375 17.5Z" fill="#BBBBBB"/>
<rect x="0.5" y="0.5" width="37" height="35" rx="7.5" stroke="#BBBBBB"/>
</svg>
