<svg width="27" height="27" viewBox="0 0 27 27" fill="none" xmlns="http://www.w3.org/2000/svg">
<path d="M16.875 4.5C19.2619 4.5 21.5511 5.44821 23.239 7.13604C24.9268 8.82387 25.875 11.1131 25.875 13.5C25.875 15.8869 24.9268 18.1761 23.239 19.864C21.5511 21.5518 19.2619 22.5 16.875 22.5C14.4881 22.5 12.1989 21.5518 10.511 19.864C8.82321 18.1761 7.875 15.8869 7.875 13.5C7.875 11.1131 8.82321 8.82387 10.511 7.13604C12.1989 5.44821 14.4881 4.5 16.875 4.5ZM16.875 20.25C18.6652 20.25 20.3821 19.5388 21.648 18.273C22.9138 17.0071 23.625 15.2902 23.625 13.5C23.625 11.7098 22.9138 9.9929 21.648 8.72703C20.3821 7.46116 18.6652 6.75 16.875 6.75C15.0848 6.75 13.3679 7.46116 12.102 8.72703C10.8362 9.9929 10.125 11.7098 10.125 13.5C10.125 15.2902 10.8362 17.0071 12.102 18.273C13.3679 19.5388 15.0848 20.25 16.875 20.25ZM3.375 13.5C3.375 16.4362 5.25375 18.9337 7.875 19.8562V22.2075C3.99375 21.2062 1.125 17.6962 1.125 13.5C1.125 9.30375 3.99375 5.79375 7.875 4.7925V7.14375C5.25375 8.06625 3.375 10.5638 3.375 13.5Z" fill="#BBBBBB"/>
</svg>
