<svg width="109" height="59" viewBox="0 0 109 59" fill="none" xmlns="http://www.w3.org/2000/svg">
<rect y="27.3959" width="25" height="25" fill="#AC1010"/>
<path d="M3.39743 4.50315H6.89779V22.3008H8.99308V25H3.39743V4.50315ZM13.1225 7.99119V21.5366C13.1225 21.8489 13.1677 22.0707 13.2581 22.2022C13.3485 22.3336 13.4964 22.3994 13.7018 22.3994C13.899 22.3994 14.0346 22.3378 14.1085 22.2145C14.1907 22.0912 14.2318 21.8653 14.2318 21.5366V7.99119C14.2318 7.66252 14.1866 7.43245 14.0962 7.30098C14.0058 7.16951 13.8579 7.10378 13.6525 7.10378C13.4635 7.10378 13.3279 7.17362 13.2458 7.3133C13.1636 7.44477 13.1225 7.67074 13.1225 7.99119ZM9.63449 8.47188C9.63449 6.64774 9.87278 5.50971 10.3494 5.05779C10.8341 4.60586 11.9434 4.3799 13.6772 4.3799C15.4438 4.3799 16.5613 4.61408 17.0296 5.08244C17.5062 5.5508 17.7445 6.68061 17.7445 8.47188V21.0313C17.7445 22.839 17.5021 23.977 17.0173 24.4454C16.5325 24.9137 15.4356 25.1479 13.7265 25.1479C11.9681 25.1479 10.8465 24.9137 10.3617 24.4454C9.87688 23.9688 9.63449 22.8308 9.63449 21.0313V8.47188ZM31.2046 8.47188V11.4916H27.6919V7.99119C27.6919 7.66252 27.6467 7.43245 27.5564 7.30098C27.466 7.16951 27.3181 7.10378 27.1126 7.10378C26.9237 7.10378 26.7881 7.17362 26.7059 7.3133C26.6237 7.44477 26.5827 7.67074 26.5827 7.99119V21.5366C26.5827 21.8489 26.6279 22.0707 26.7182 22.2022C26.8086 22.3336 26.9565 22.3994 27.1619 22.3994C27.3591 22.3994 27.4947 22.3378 27.5687 22.2145C27.6508 22.0912 27.6919 21.8653 27.6919 21.5366V16.3107H31.2046V21.0313C31.2046 22.839 30.9622 23.977 30.4774 24.4454C29.9926 24.9137 28.8957 25.1479 27.1866 25.1479C25.4282 25.1479 24.3066 24.9137 23.8218 24.4454C23.337 23.9688 23.0946 22.8308 23.0946 21.0313V8.47188C23.0946 6.64774 23.3329 5.50971 23.8095 5.05779C24.2943 4.60586 25.4035 4.3799 27.1373 4.3799C28.9039 4.3799 30.0214 4.61408 30.4898 5.08244C30.9663 5.5508 31.2046 6.68061 31.2046 8.47188ZM35.5929 7.99119V21.5366C35.5929 21.8489 35.6381 22.0707 35.7285 22.2022C35.8189 22.3336 35.9668 22.3994 36.1722 22.3994C36.3694 22.3994 36.505 22.3378 36.5789 22.2145C36.6611 22.0912 36.7022 21.8653 36.7022 21.5366V7.99119C36.7022 7.66252 36.657 7.43245 36.5666 7.30098C36.4762 7.16951 36.3283 7.10378 36.1229 7.10378C35.9339 7.10378 35.7983 7.17362 35.7161 7.3133C35.634 7.44477 35.5929 7.67074 35.5929 7.99119ZM32.1049 8.47188C32.1049 6.64774 32.3431 5.50971 32.8197 5.05779C33.3045 4.60586 34.4138 4.3799 36.1475 4.3799C37.9141 4.3799 39.0316 4.61408 39.5 5.08244C39.9766 5.5508 40.2149 6.68061 40.2149 8.47188V21.0313C40.2149 22.839 39.9725 23.977 39.4877 24.4454C39.0029 24.9137 37.9059 25.1479 36.1968 25.1479C34.4384 25.1479 33.3168 24.9137 32.832 24.4454C32.3473 23.9688 32.1049 22.8308 32.1049 21.0313V8.47188ZM41.3493 4.50315H44.4799L46.3903 14.7208H46.5505L46.4889 4.50315H49.5209V25H46.415L44.4799 14.4989H44.3197L44.3936 25H41.3493V4.50315ZM50.1623 4.50315H53.5518L54.3036 18.3814H54.4392L55.2896 4.50315H58.5928L56.3989 25H52.3685L50.1623 4.50315ZM59.1972 4.50315H64.7928V7.17773H62.6976V12.4036H64.7928V15.1028H62.6976V22.3008H64.7928V25H59.1972V4.50315ZM69.4646 7.17773V13.4389C69.5056 13.4389 69.5591 13.443 69.6248 13.4513C69.6987 13.4595 69.748 13.4636 69.7727 13.4636C70.0849 13.4636 70.2945 13.3937 70.4013 13.2541C70.5163 13.1062 70.5738 12.8227 70.5738 12.4036V8.47188C70.5738 7.85561 70.5163 7.48586 70.4013 7.36261C70.2862 7.23935 70.0521 7.17773 69.6987 7.17773H69.4646ZM65.9642 4.50315H70.2534C71.7817 4.50315 72.7965 4.76198 73.2977 5.27964C73.8072 5.78908 74.0619 6.9189 74.0619 8.66908V11.3437C74.0619 12.494 73.9427 13.3034 73.7044 13.7717C73.4744 14.2401 73.0635 14.6098 72.4719 14.881C73.0471 15.1028 73.4538 15.448 73.6921 15.9163C73.9386 16.3765 74.0619 17.0831 74.0619 18.0362V25H70.5738V17.4077C70.5738 17.0708 70.5081 16.8325 70.3766 16.6928C70.2534 16.5449 70.0439 16.4709 69.748 16.4709C69.7152 16.4709 69.6659 16.4751 69.6001 16.4833C69.5426 16.4915 69.4974 16.4956 69.4646 16.4956V25H65.9642V4.50315ZM83.2447 8.47188V11.5655H79.7567V7.96654C79.7567 7.6543 79.7115 7.43245 79.6211 7.30098C79.5307 7.16951 79.3828 7.10378 79.1774 7.10378C78.9966 7.10378 78.8652 7.16951 78.783 7.30098C78.709 7.42423 78.6721 7.64609 78.6721 7.96654V11.1464C78.6721 11.5162 78.7255 11.7833 78.8323 11.9476C78.9391 12.1037 79.1486 12.2722 79.4609 12.4529L81.6055 13.6854C82.1889 14.0223 82.6079 14.4208 82.8626 14.881C83.1174 15.3329 83.2447 15.9697 83.2447 16.7914V21.0683C83.2447 22.8924 83.0064 24.0304 82.5299 24.4823C82.0533 24.926 80.9358 25.1479 79.1774 25.1479C77.4601 25.1479 76.3549 24.9137 75.8619 24.4454C75.3771 23.9688 75.1347 22.8431 75.1347 21.0683V16.5449H78.6721V21.5366C78.6721 21.8489 78.7173 22.0748 78.8076 22.2145C78.9062 22.3542 79.0541 22.424 79.2513 22.424C79.4321 22.424 79.5595 22.3583 79.6334 22.2268C79.7156 22.0871 79.7567 21.8571 79.7567 21.5366V17.1981C79.7567 16.8284 79.7074 16.5695 79.6088 16.4216C79.5102 16.2737 79.3006 16.1053 78.9802 15.9163L76.7247 14.5975C76.1577 14.2688 75.751 13.8662 75.5045 13.3896C75.258 12.9131 75.1347 12.2475 75.1347 11.393V8.47188C75.1347 6.69704 75.3771 5.57134 75.8619 5.09476C76.3467 4.61819 77.4601 4.3799 79.202 4.3799C80.9194 4.3799 82.0204 4.60997 82.5052 5.07011C82.9982 5.52204 83.2447 6.65596 83.2447 8.47188ZM87.7809 7.99119V21.5366C87.7809 21.8489 87.826 22.0707 87.9164 22.2022C88.0068 22.3336 88.1547 22.3994 88.3601 22.3994C88.5573 22.3994 88.6929 22.3378 88.7669 22.2145C88.849 22.0912 88.8901 21.8653 88.8901 21.5366V7.99119C88.8901 7.66252 88.8449 7.43245 88.7545 7.30098C88.6642 7.16951 88.5163 7.10378 88.3108 7.10378C88.1219 7.10378 87.9863 7.17362 87.9041 7.3133C87.8219 7.44477 87.7809 7.67074 87.7809 7.99119ZM84.2928 8.47188C84.2928 6.64774 84.5311 5.50971 85.0077 5.05779C85.4925 4.60586 86.6017 4.3799 88.3355 4.3799C90.1021 4.3799 91.2196 4.61408 91.688 5.08244C92.1645 5.5508 92.4028 6.68061 92.4028 8.47188V21.0313C92.4028 22.839 92.1604 23.977 91.6756 24.4454C91.1908 24.9137 90.0939 25.1479 88.3848 25.1479C86.6264 25.1479 85.5048 24.9137 85.02 24.4454C84.5352 23.9688 84.2928 22.8308 84.2928 21.0313V8.47188ZM97.0376 7.17773V13.4389C97.0787 13.4389 97.1321 13.443 97.1978 13.4513C97.2718 13.4595 97.3211 13.4636 97.3457 13.4636C97.658 13.4636 97.8675 13.3937 97.9743 13.2541C98.0894 13.1062 98.1469 12.8227 98.1469 12.4036V8.47188C98.1469 7.85561 98.0894 7.48586 97.9743 7.36261C97.8593 7.23935 97.6251 7.17773 97.2718 7.17773H97.0376ZM93.5372 4.50315H97.8264C99.3548 4.50315 100.37 4.76198 100.871 5.27964C101.38 5.78908 101.635 6.9189 101.635 8.66908V11.3437C101.635 12.494 101.516 13.3034 101.277 13.7717C101.047 14.2401 100.637 14.6098 100.045 14.881C100.62 15.1028 101.027 15.448 101.265 15.9163C101.512 16.3765 101.635 17.0831 101.635 18.0362V25H98.1469V17.4077C98.1469 17.0708 98.0811 16.8325 97.9497 16.6928C97.8264 16.5449 97.6169 16.4709 97.3211 16.4709C97.2882 16.4709 97.2389 16.4751 97.1732 16.4833C97.1157 16.4915 97.0705 16.4956 97.0376 16.4956V25H93.5372V4.50315Z" fill="white"/>
<path d="M6.90359 32.0252V47.1929H7.21213C7.52478 47.1929 7.73047 47.1353 7.8292 47.0201C7.93616 46.905 7.98964 46.6005 7.98964 46.1069V45.9835V33.1359C7.98964 32.6258 7.93616 32.3132 7.8292 32.198C7.72224 32.0828 7.50009 32.0252 7.16276 32.0252H6.90359ZM3.3986 29.3471H7.69344C9.30607 29.3471 10.3428 29.5857 10.8035 30.0629C11.2725 30.5401 11.507 31.692 11.507 33.5185V45.6749C11.507 47.5261 11.2725 48.6904 10.8035 49.1676C10.3428 49.6365 9.3143 49.871 7.71813 49.871H3.3986V29.3471ZM15.8517 29.3471H21.4547V32.0252H19.3567V37.258H21.4547V39.9608H19.3567V47.1682H21.4547V49.871H15.8517V29.3471ZM33.2789 29.3471H37.3639L38.6598 39.1833H38.8325L40.1284 29.3471H44.2134V49.871H41.091L41.2145 37.7393H41.0047L39.6718 49.871H37.8205L36.4877 37.7393H36.2779L36.4136 49.871H33.2789V29.3471ZM52.0261 32.8397V46.4031C52.0261 46.7157 52.0714 46.9379 52.1619 47.0695C52.2524 47.2012 52.4005 47.267 52.6062 47.267C52.8036 47.267 52.9394 47.2053 53.0134 47.0819C53.0957 46.9584 53.1368 46.7322 53.1368 46.4031V32.8397C53.1368 32.5106 53.0916 32.2803 53.0011 32.1486C52.9106 32.017 52.7625 31.9512 52.5568 31.9512C52.3676 31.9512 52.2318 32.0211 52.1495 32.161C52.0672 32.2926 52.0261 32.5189 52.0261 32.8397ZM48.5335 33.3211C48.5335 31.4945 48.7721 30.355 49.2493 29.9025C49.7347 29.4499 50.8454 29.2237 52.5815 29.2237C54.3504 29.2237 55.4694 29.4582 55.9384 29.9271C56.4156 30.3961 56.6542 31.5274 56.6542 33.3211V45.8971C56.6542 47.7072 56.4115 48.8467 55.926 49.3157C55.4406 49.7846 54.3422 50.0191 52.6308 50.0191C50.8701 50.0191 49.747 49.7846 49.2616 49.3157C48.7762 48.8385 48.5335 47.6989 48.5335 45.8971V33.3211ZM60.9495 29.3471H66.5526V32.0252H64.4545V37.258H66.5526V39.9608H64.4545V47.1682H66.5526V49.871H60.9495V29.3471ZM74.3899 32.0252V47.1929H74.6984C75.0111 47.1929 75.2168 47.1353 75.3155 47.0201C75.4225 46.905 75.476 46.6005 75.476 46.1069V45.9835V33.1359C75.476 32.6258 75.4225 32.3132 75.3155 32.198C75.2086 32.0828 74.9864 32.0252 74.6491 32.0252H74.3899ZM70.8849 29.3471H75.1798C76.7924 29.3471 77.8291 29.5857 78.2898 30.0629C78.7588 30.5401 78.9933 31.692 78.9933 33.5185V45.6749C78.9933 47.5261 78.7588 48.6904 78.2898 49.1676C77.8291 49.6365 76.8006 49.871 75.2044 49.871H70.8849V29.3471ZM87.1762 33.4198L86.6208 42.7747H87.8056L87.2749 33.4198H87.1762ZM84.8807 29.3471H89.5458L91.6192 49.871H88.2129L87.9537 45.5021H86.4974L86.2383 49.871H82.8567L84.8807 29.3471ZM103.628 33.3211V36.4188H100.135V32.8151C100.135 32.5024 100.09 32.2803 99.9995 32.1486C99.909 32.017 99.7609 31.9512 99.5552 31.9512C99.3742 31.9512 99.2426 32.017 99.1603 32.1486C99.0863 32.272 99.0492 32.4942 99.0492 32.8151V35.9992C99.0492 36.3694 99.1027 36.6368 99.2097 36.8014C99.3166 36.9577 99.5265 37.1264 99.8391 37.3074L101.987 38.5415C102.571 38.8789 102.99 39.2779 103.245 39.7387C103.5 40.1912 103.628 40.8288 103.628 41.6516V45.9341C103.628 47.7606 103.389 48.9002 102.912 49.3527C102.435 49.797 101.316 50.0191 99.5552 50.0191C97.8357 50.0191 96.729 49.7846 96.2354 49.3157C95.7499 48.8385 95.5072 47.7113 95.5072 45.9341V41.4048H99.0492V46.4031C99.0492 46.7157 99.0945 46.942 99.185 47.0819C99.2837 47.2217 99.4318 47.2917 99.6293 47.2917C99.8103 47.2917 99.9378 47.2258 100.012 47.0942C100.094 46.9543 100.135 46.7239 100.135 46.4031V42.0589C100.135 41.6886 100.086 41.4294 99.9872 41.2813C99.8885 41.1332 99.6787 40.9646 99.3578 40.7753L97.0993 39.4548C96.5316 39.1257 96.1243 38.7225 95.8775 38.2453C95.6306 37.7681 95.5072 37.1017 95.5072 36.246V33.3211C95.5072 31.5439 95.7499 30.4167 96.2354 29.9395C96.7208 29.4623 97.8357 29.2237 99.5799 29.2237C101.3 29.2237 102.402 29.4541 102.887 29.9148C103.381 30.3673 103.628 31.5027 103.628 33.3211Z" fill="white"/>
</svg>
